<?xml version="1.0" encoding="UTF-8"?>
<svg version="1.1" xmlns="http://www.w3.org/2000/svg" width="1200" height="1200" viewBox="150 180 900 900">
<path d="M0 0 C259.05 0 518.1 0 785 0 C785 258.72 785 517.44 785 784 C525.95 784 266.9 784 0 784 C0 663.88 0 543.76 0 420 C14.91502287 413.11614329 14.91502287 413.11614329 21.734375 410.3984375 C22.51500809 410.08396164 23.29564117 409.76948578 24.09992981 409.44548035 C25.77619112 408.77053298 27.45302779 408.09701299 29.13040161 407.42483521 C33.73938878 405.57772879 38.34397657 403.71970033 42.94921875 401.86328125 C44.40393837 401.27736458 44.40393837 401.27736458 45.88804626 400.67961121 C56.40174245 396.44195534 66.89402488 392.15216278 77.38607788 387.86126709 C106.3890885 376.00259268 106.3890885 376.00259268 119.4375 370.75 C120.42500244 370.34982666 121.41250488 369.94965332 122.42993164 369.53735352 C123.29739014 369.18987061 124.16484863 368.8423877 125.05859375 368.484375 C125.78361084 368.19272461 126.50862793 367.90107422 127.25561523 367.60058594 C129 367 129 367 131 367 C131 366.34 131 365.68 131 365 C130.46882568 364.85812256 129.93765137 364.71624512 129.39038086 364.57006836 C121.6975598 362.39630396 114.33301434 359.4732715 106.92190552 356.50674438 C103.62860099 355.18874954 100.33144704 353.88050713 97.03453064 352.57157898 C95.23915806 351.85873485 93.44396576 351.14543655 91.64894104 350.43171692 C81.23361513 346.29219433 70.80045173 342.19825016 60.36587524 338.10754395 C58.166849 337.24544521 55.96793506 336.38305997 53.76913452 335.52038574 C43.15307485 331.35531372 32.53521071 327.19559034 21.89453125 323.09375 C21.14722244 322.80553879 20.39991364 322.51732758 19.62995911 322.22038269 C16.26024657 320.92161786 12.88923456 319.62640528 9.51586914 318.3371582 C7.81805298 317.68493286 7.81805298 317.68493286 6.0859375 317.01953125 C5.1170459 316.64932861 4.1481543 316.27912598 3.14990234 315.89770508 C1 315 1 315 0 314 C0 210.38 0 106.76 0 0 Z " fill="#95C11F" transform="translate(202,222)"/>
<path d="M0 0 C26.73 0 53.46 0 81 0 C81.0093457 10.25843994 81.01869141 20.51687988 81.02832031 31.08618164 C81.0611229 64.02004763 81.11347392 96.95385711 81.17792095 129.88767577 C81.18793677 135.01504202 81.19778118 140.1424086 81.20751953 145.26977539 C81.2094609 146.29041525 81.21140228 147.31105511 81.21340248 148.36262345 C81.24430806 164.82485365 81.26137101 181.28706996 81.27319422 197.74932367 C81.2856654 214.6782284 81.31329998 231.60706097 81.35461307 248.53592008 C81.37957894 258.95711697 81.39312977 269.37819397 81.39142957 279.79942118 C81.3913995 286.97429199 81.40627829 294.14904192 81.43216428 301.32386548 C81.44661542 305.4451489 81.45518549 309.56618464 81.44580269 313.68748856 C81.40394135 334.46000182 82.74385996 354.46097784 86 375 C86.1701904 376.10043109 86.34038079 377.20086218 86.51572847 378.33463967 C87.63649538 385.37130072 89.34354259 391.8514224 91.75 398.5625 C92.10852051 399.56974121 92.46704102 400.57698242 92.83642578 401.61474609 C102.55938289 428.35179252 122.34714279 448.19291644 147.984375 460.21484375 C177.73344683 473.64462809 214.46215927 473.79877561 244.98803711 462.55737305 C257.25786661 457.6907518 268.25515555 450.9113041 278 442 C278.83917969 441.24203125 279.67835938 440.4840625 280.54296875 439.703125 C298.93606553 422.25107038 307.97950837 399.96780285 312.1875 375.3125 C312.3424292 374.40636963 312.4973584 373.50023926 312.65698242 372.56665039 C315.92199795 351.97590192 316.30893309 331.44645608 316.31667423 310.64891946 C316.32041827 306.46722503 316.33559749 302.28556865 316.34928894 298.10389709 C316.3714108 290.88348999 316.38651399 283.66309669 316.39665604 276.44266319 C316.41132962 266.00352483 316.43688986 255.56443466 316.46498732 245.12532482 C316.51029893 228.1827652 316.54697782 211.24019858 316.578125 194.29760742 C316.60837493 177.85325901 316.64275447 161.40892765 316.68261719 144.96459961 C316.68507874 143.94856432 316.68754028 142.93252902 316.69007643 141.88570478 C316.70245228 136.78783557 316.71490857 131.68996656 316.72740483 126.59209764 C316.83073821 84.39475201 316.91840915 42.19739437 317 0 C343.73 0 370.46 0 398 0 C398.06625791 45.54670412 398.12160347 91.09336241 398.15319599 136.64010101 C398.15694767 142.02927315 398.16083068 147.4184452 398.16479492 152.80761719 C398.16558185 153.88040905 398.16636878 154.95320091 398.16717956 156.05850162 C398.18019866 173.38094361 398.20383304 190.70335543 398.23145839 208.02577959 C398.25961024 225.82811862 398.27619683 243.63044195 398.28226548 261.43280232 C398.28636174 272.39911408 398.29925275 283.36534054 398.3237494 294.33162601 C398.33972763 301.87317955 398.34437333 309.41468962 398.34050413 316.95625882 C398.33860118 321.29360885 398.34131237 325.63081088 398.35761642 329.96813393 C398.42631216 349.1948729 397.86009777 367.9337488 395 387 C394.889418 387.74713249 394.77883601 388.49426498 394.66490304 389.26403785 C389.58439618 422.81107383 372.67963676 456.80371662 349 481 C347.88754568 482.30548292 346.78290098 483.6176754 345.6875 484.9375 C322.94431769 510.90704074 291.63221827 528.16974421 259.04785156 538.34912109 C257.39614365 538.87409168 255.75436846 539.43025539 254.11621094 539.99609375 C235.56576922 545.97223104 215.54816021 546.49804421 196.25 546.5 C195.28529785 546.50412903 194.3205957 546.50825806 193.32666016 546.51251221 C175.90382297 546.54623431 159.27339053 544.67373969 142.5 539.8125 C140.9221875 539.36076416 140.9221875 539.36076416 139.3125 538.89990234 C129.52607702 536.00940393 120.20534506 532.39150315 111 528 C110.2790918 527.65743164 109.55818359 527.31486328 108.81542969 526.96191406 C92.23316648 518.94354163 77.75915561 508.15668367 64 496 C63.12988281 495.25234375 62.25976562 494.5046875 61.36328125 493.734375 C33.26159874 469.20606185 12.4987326 433.58617306 5 397 C4.61908203 395.20949219 4.61908203 395.20949219 4.23046875 393.3828125 C-0.15047246 372.06442032 -0.28579798 350.85449825 -0.23213124 329.19019091 C-0.22340284 324.76171767 -0.22642346 320.33324933 -0.22793579 315.9047699 C-0.22897877 308.25323386 -0.22276401 300.60173223 -0.21146011 292.95020485 C-0.19512782 281.88771637 -0.18998924 270.82524433 -0.18748413 259.7627451 C-0.18311908 241.80967548 -0.16984247 223.85662416 -0.15087891 205.90356445 C-0.13248917 188.47550548 -0.11834785 171.0474515 -0.10986328 153.61938477 C-0.10933783 152.54308411 -0.10881239 151.46678346 -0.10827102 150.35786764 C-0.10566073 144.95777593 -0.10313336 139.55768418 -0.10064721 134.15759242 C-0.07995182 89.43837869 -0.0431022 44.71919884 0 0 Z " fill="#FEFEFE" transform="translate(391,345)"/>
</svg>
